<mxfile host="app.diagrams.net" modified="2023-04-13T11:20:37.922Z" agent="Mozilla/5.0 (Windows NT 10.0; Win64; x64) AppleWebKit/537.36 (KHTML, like Gecko) Chrome/112.0.0.0 Safari/537.36" etag="jRF6DqJWDOfBY5xn1fyA" version="21.1.7" type="device">
  <diagram name="Page-1" id="2YBvvXClWsGukQMizWep">
    <mxGraphModel dx="2607" dy="1447" grid="1" gridSize="10" guides="1" tooltips="1" connect="1" arrows="1" fold="1" page="1" pageScale="1" pageWidth="1100" pageHeight="1700" math="0" shadow="0">
      <root>
        <mxCell id="0" />
        <mxCell id="1" parent="0" />
        <mxCell id="aM9ryv3xv72pqoxQDRHE-1" value=":Homepage" style="shape=umlLifeline;perimeter=lifelinePerimeter;whiteSpace=wrap;html=1;container=0;dropTarget=0;collapsible=0;recursiveResize=0;outlineConnect=0;portConstraint=eastwest;newEdgeStyle={&quot;edgeStyle&quot;:&quot;elbowEdgeStyle&quot;,&quot;elbow&quot;:&quot;vertical&quot;,&quot;curved&quot;:0,&quot;rounded&quot;:0};" parent="1" vertex="1">
          <mxGeometry x="225" y="50" width="100" height="1630" as="geometry" />
        </mxCell>
        <mxCell id="eMwaslhEiThWYDU8rAF3-19" value="" style="html=1;points=[];perimeter=orthogonalPerimeter;outlineConnect=0;targetShapes=umlLifeline;portConstraint=eastwest;newEdgeStyle={&quot;edgeStyle&quot;:&quot;elbowEdgeStyle&quot;,&quot;elbow&quot;:&quot;vertical&quot;,&quot;curved&quot;:0,&quot;rounded&quot;:0};" parent="aM9ryv3xv72pqoxQDRHE-1" vertex="1">
          <mxGeometry x="45" y="1210" width="10" height="290" as="geometry" />
        </mxCell>
        <mxCell id="aM9ryv3xv72pqoxQDRHE-5" value=":Content" style="shape=umlLifeline;perimeter=lifelinePerimeter;whiteSpace=wrap;html=1;container=0;dropTarget=0;collapsible=0;recursiveResize=0;outlineConnect=0;portConstraint=eastwest;newEdgeStyle={&quot;edgeStyle&quot;:&quot;elbowEdgeStyle&quot;,&quot;elbow&quot;:&quot;vertical&quot;,&quot;curved&quot;:0,&quot;rounded&quot;:0};" parent="1" vertex="1">
          <mxGeometry x="670" y="50" width="100" height="1630" as="geometry" />
        </mxCell>
        <mxCell id="Cr7AIB8-x1aL-NXQXFv3-61" value="" style="html=1;points=[];perimeter=orthogonalPerimeter;outlineConnect=0;targetShapes=umlLifeline;portConstraint=eastwest;newEdgeStyle={&quot;edgeStyle&quot;:&quot;elbowEdgeStyle&quot;,&quot;elbow&quot;:&quot;vertical&quot;,&quot;curved&quot;:0,&quot;rounded&quot;:0};" parent="aM9ryv3xv72pqoxQDRHE-5" vertex="1">
          <mxGeometry x="45" y="220" width="10" height="60" as="geometry" />
        </mxCell>
        <mxCell id="8l9VhPuDRp_csp2zXiqJ-39" value="" style="html=1;points=[];perimeter=orthogonalPerimeter;outlineConnect=0;targetShapes=umlLifeline;portConstraint=eastwest;newEdgeStyle={&quot;edgeStyle&quot;:&quot;elbowEdgeStyle&quot;,&quot;elbow&quot;:&quot;vertical&quot;,&quot;curved&quot;:0,&quot;rounded&quot;:0};" parent="aM9ryv3xv72pqoxQDRHE-5" vertex="1">
          <mxGeometry x="45" y="520" width="10" height="130" as="geometry" />
        </mxCell>
        <mxCell id="8l9VhPuDRp_csp2zXiqJ-52" value="" style="endArrow=classic;html=1;rounded=0;" parent="aM9ryv3xv72pqoxQDRHE-5" source="8l9VhPuDRp_csp2zXiqJ-39" target="8l9VhPuDRp_csp2zXiqJ-39" edge="1">
          <mxGeometry width="50" height="50" relative="1" as="geometry">
            <mxPoint x="60" y="590" as="sourcePoint" />
            <mxPoint x="60" y="670" as="targetPoint" />
            <Array as="points">
              <mxPoint x="90" y="590" />
              <mxPoint x="110" y="590" />
              <mxPoint x="110" y="610" />
            </Array>
          </mxGeometry>
        </mxCell>
        <mxCell id="8l9VhPuDRp_csp2zXiqJ-53" value="" style="endArrow=classic;html=1;rounded=0;" parent="aM9ryv3xv72pqoxQDRHE-5" source="8l9VhPuDRp_csp2zXiqJ-39" target="8l9VhPuDRp_csp2zXiqJ-39" edge="1">
          <mxGeometry width="50" height="50" relative="1" as="geometry">
            <mxPoint x="60" y="680" as="sourcePoint" />
            <mxPoint x="60" y="640" as="targetPoint" />
            <Array as="points">
              <mxPoint x="100" y="620" />
              <mxPoint x="110" y="620" />
              <mxPoint x="110" y="640" />
            </Array>
          </mxGeometry>
        </mxCell>
        <mxCell id="8l9VhPuDRp_csp2zXiqJ-50" value="" style="endArrow=classic;html=1;rounded=0;" parent="aM9ryv3xv72pqoxQDRHE-5" source="8l9VhPuDRp_csp2zXiqJ-39" target="8l9VhPuDRp_csp2zXiqJ-39" edge="1">
          <mxGeometry width="50" height="50" relative="1" as="geometry">
            <mxPoint x="60" y="530" as="sourcePoint" />
            <mxPoint x="60" y="550" as="targetPoint" />
            <Array as="points">
              <mxPoint x="100" y="530" />
              <mxPoint x="110" y="530" />
              <mxPoint x="110" y="550" />
            </Array>
          </mxGeometry>
        </mxCell>
        <mxCell id="8l9VhPuDRp_csp2zXiqJ-51" value="" style="endArrow=classic;html=1;rounded=0;" parent="aM9ryv3xv72pqoxQDRHE-5" source="8l9VhPuDRp_csp2zXiqJ-39" target="8l9VhPuDRp_csp2zXiqJ-39" edge="1">
          <mxGeometry width="50" height="50" relative="1" as="geometry">
            <mxPoint x="60" y="560" as="sourcePoint" />
            <mxPoint x="60" y="580" as="targetPoint" />
            <Array as="points">
              <mxPoint x="110" y="560" />
              <mxPoint x="110" y="580" />
            </Array>
          </mxGeometry>
        </mxCell>
        <mxCell id="eMwaslhEiThWYDU8rAF3-46" value="" style="html=1;points=[];perimeter=orthogonalPerimeter;outlineConnect=0;targetShapes=umlLifeline;portConstraint=eastwest;newEdgeStyle={&quot;edgeStyle&quot;:&quot;elbowEdgeStyle&quot;,&quot;elbow&quot;:&quot;vertical&quot;,&quot;curved&quot;:0,&quot;rounded&quot;:0};" parent="aM9ryv3xv72pqoxQDRHE-5" vertex="1">
          <mxGeometry x="45" y="1370" width="10" height="20" as="geometry" />
        </mxCell>
        <mxCell id="eMwaslhEiThWYDU8rAF3-47" value="" style="html=1;points=[];perimeter=orthogonalPerimeter;outlineConnect=0;targetShapes=umlLifeline;portConstraint=eastwest;newEdgeStyle={&quot;edgeStyle&quot;:&quot;elbowEdgeStyle&quot;,&quot;elbow&quot;:&quot;vertical&quot;,&quot;curved&quot;:0,&quot;rounded&quot;:0};" parent="aM9ryv3xv72pqoxQDRHE-5" vertex="1">
          <mxGeometry x="45" y="1420" width="10" height="20" as="geometry" />
        </mxCell>
        <mxCell id="Cr7AIB8-x1aL-NXQXFv3-6" value=":Comment" style="shape=umlLifeline;perimeter=lifelinePerimeter;whiteSpace=wrap;html=1;container=0;dropTarget=0;collapsible=0;recursiveResize=0;outlineConnect=0;portConstraint=eastwest;newEdgeStyle={&quot;edgeStyle&quot;:&quot;elbowEdgeStyle&quot;,&quot;elbow&quot;:&quot;vertical&quot;,&quot;curved&quot;:0,&quot;rounded&quot;:0};" parent="1" vertex="1">
          <mxGeometry x="950" y="50" width="100" height="1630" as="geometry" />
        </mxCell>
        <mxCell id="Cr7AIB8-x1aL-NXQXFv3-66" value="" style="html=1;points=[];perimeter=orthogonalPerimeter;outlineConnect=0;targetShapes=umlLifeline;portConstraint=eastwest;newEdgeStyle={&quot;edgeStyle&quot;:&quot;elbowEdgeStyle&quot;,&quot;elbow&quot;:&quot;vertical&quot;,&quot;curved&quot;:0,&quot;rounded&quot;:0};" parent="Cr7AIB8-x1aL-NXQXFv3-6" vertex="1">
          <mxGeometry x="45" y="260" width="10" height="20" as="geometry" />
        </mxCell>
        <mxCell id="eMwaslhEiThWYDU8rAF3-41" value="" style="html=1;points=[];perimeter=orthogonalPerimeter;outlineConnect=0;targetShapes=umlLifeline;portConstraint=eastwest;newEdgeStyle={&quot;edgeStyle&quot;:&quot;elbowEdgeStyle&quot;,&quot;elbow&quot;:&quot;vertical&quot;,&quot;curved&quot;:0,&quot;rounded&quot;:0};" parent="Cr7AIB8-x1aL-NXQXFv3-6" vertex="1">
          <mxGeometry x="45" y="1330" width="10" height="20" as="geometry" />
        </mxCell>
        <mxCell id="Cr7AIB8-x1aL-NXQXFv3-11" value=":Like" style="shape=umlLifeline;perimeter=lifelinePerimeter;whiteSpace=wrap;html=1;container=0;dropTarget=0;collapsible=0;recursiveResize=0;outlineConnect=0;portConstraint=eastwest;newEdgeStyle={&quot;edgeStyle&quot;:&quot;elbowEdgeStyle&quot;,&quot;elbow&quot;:&quot;vertical&quot;,&quot;curved&quot;:0,&quot;rounded&quot;:0};" parent="1" vertex="1">
          <mxGeometry x="810" y="50" width="100" height="1630" as="geometry" />
        </mxCell>
        <mxCell id="Cr7AIB8-x1aL-NXQXFv3-7" value="" style="html=1;points=[];perimeter=orthogonalPerimeter;outlineConnect=0;targetShapes=umlLifeline;portConstraint=eastwest;newEdgeStyle={&quot;edgeStyle&quot;:&quot;elbowEdgeStyle&quot;,&quot;elbow&quot;:&quot;vertical&quot;,&quot;curved&quot;:0,&quot;rounded&quot;:0};" parent="Cr7AIB8-x1aL-NXQXFv3-11" vertex="1">
          <mxGeometry x="45" y="230" width="10" height="20" as="geometry" />
        </mxCell>
        <mxCell id="eMwaslhEiThWYDU8rAF3-37" value="" style="html=1;points=[];perimeter=orthogonalPerimeter;outlineConnect=0;targetShapes=umlLifeline;portConstraint=eastwest;newEdgeStyle={&quot;edgeStyle&quot;:&quot;elbowEdgeStyle&quot;,&quot;elbow&quot;:&quot;vertical&quot;,&quot;curved&quot;:0,&quot;rounded&quot;:0};" parent="Cr7AIB8-x1aL-NXQXFv3-11" vertex="1">
          <mxGeometry x="45" y="1270" width="10" height="20" as="geometry" />
        </mxCell>
        <mxCell id="Cr7AIB8-x1aL-NXQXFv3-16" value="Visitor" style="shape=umlActor;verticalLabelPosition=bottom;verticalAlign=top;html=1;outlineConnect=0;" parent="1" vertex="1">
          <mxGeometry x="150" y="40" width="30" height="60" as="geometry" />
        </mxCell>
        <mxCell id="Cr7AIB8-x1aL-NXQXFv3-17" value="Member" style="shape=umlActor;verticalLabelPosition=bottom;verticalAlign=top;html=1;outlineConnect=0;" parent="1" vertex="1">
          <mxGeometry x="100" y="40" width="30" height="60" as="geometry" />
        </mxCell>
        <mxCell id="Cr7AIB8-x1aL-NXQXFv3-18" value="Editor" style="shape=umlActor;verticalLabelPosition=bottom;verticalAlign=top;html=1;outlineConnect=0;" parent="1" vertex="1">
          <mxGeometry x="50" y="40" width="30" height="60" as="geometry" />
        </mxCell>
        <mxCell id="Cr7AIB8-x1aL-NXQXFv3-19" value="Admin" style="shape=umlActor;verticalLabelPosition=bottom;verticalAlign=top;html=1;outlineConnect=0;" parent="1" vertex="1">
          <mxGeometry x="10" y="40" width="30" height="60" as="geometry" />
        </mxCell>
        <mxCell id="Cr7AIB8-x1aL-NXQXFv3-24" value=":Login" style="shape=umlLifeline;perimeter=lifelinePerimeter;whiteSpace=wrap;html=1;container=0;dropTarget=0;collapsible=0;recursiveResize=0;outlineConnect=0;portConstraint=eastwest;newEdgeStyle={&quot;edgeStyle&quot;:&quot;elbowEdgeStyle&quot;,&quot;elbow&quot;:&quot;vertical&quot;,&quot;curved&quot;:0,&quot;rounded&quot;:0};" parent="1" vertex="1">
          <mxGeometry x="380" y="50" width="100" height="1630" as="geometry" />
        </mxCell>
        <mxCell id="8l9VhPuDRp_csp2zXiqJ-26" value="" style="html=1;points=[];perimeter=orthogonalPerimeter;outlineConnect=0;targetShapes=umlLifeline;portConstraint=eastwest;newEdgeStyle={&quot;edgeStyle&quot;:&quot;elbowEdgeStyle&quot;,&quot;elbow&quot;:&quot;vertical&quot;,&quot;curved&quot;:0,&quot;rounded&quot;:0};" parent="Cr7AIB8-x1aL-NXQXFv3-24" vertex="1">
          <mxGeometry x="45" y="470" width="10" height="190" as="geometry" />
        </mxCell>
        <mxCell id="eMwaslhEiThWYDU8rAF3-18" value="" style="html=1;points=[];perimeter=orthogonalPerimeter;outlineConnect=0;targetShapes=umlLifeline;portConstraint=eastwest;newEdgeStyle={&quot;edgeStyle&quot;:&quot;elbowEdgeStyle&quot;,&quot;elbow&quot;:&quot;vertical&quot;,&quot;curved&quot;:0,&quot;rounded&quot;:0};" parent="Cr7AIB8-x1aL-NXQXFv3-24" vertex="1">
          <mxGeometry x="45" y="1220" width="10" height="270" as="geometry" />
        </mxCell>
        <mxCell id="Cr7AIB8-x1aL-NXQXFv3-29" value=":Signup" style="shape=umlLifeline;perimeter=lifelinePerimeter;whiteSpace=wrap;html=1;container=0;dropTarget=0;collapsible=0;recursiveResize=0;outlineConnect=0;portConstraint=eastwest;newEdgeStyle={&quot;edgeStyle&quot;:&quot;elbowEdgeStyle&quot;,&quot;elbow&quot;:&quot;vertical&quot;,&quot;curved&quot;:0,&quot;rounded&quot;:0};" parent="1" vertex="1">
          <mxGeometry x="530" y="50" width="100" height="1630" as="geometry" />
        </mxCell>
        <mxCell id="Cr7AIB8-x1aL-NXQXFv3-34" value=":Profile" style="shape=umlLifeline;perimeter=lifelinePerimeter;whiteSpace=wrap;html=1;container=0;dropTarget=0;collapsible=0;recursiveResize=0;outlineConnect=0;portConstraint=eastwest;newEdgeStyle={&quot;edgeStyle&quot;:&quot;elbowEdgeStyle&quot;,&quot;elbow&quot;:&quot;vertical&quot;,&quot;curved&quot;:0,&quot;rounded&quot;:0};" parent="1" vertex="1">
          <mxGeometry x="1090" y="50" width="100" height="1630" as="geometry" />
        </mxCell>
        <mxCell id="8l9VhPuDRp_csp2zXiqJ-28" value="" style="html=1;points=[];perimeter=orthogonalPerimeter;outlineConnect=0;targetShapes=umlLifeline;portConstraint=eastwest;newEdgeStyle={&quot;edgeStyle&quot;:&quot;elbowEdgeStyle&quot;,&quot;elbow&quot;:&quot;vertical&quot;,&quot;curved&quot;:0,&quot;rounded&quot;:0};" parent="Cr7AIB8-x1aL-NXQXFv3-34" vertex="1">
          <mxGeometry x="45" y="490" width="10" height="110" as="geometry" />
        </mxCell>
        <mxCell id="8l9VhPuDRp_csp2zXiqJ-32" value="" style="endArrow=classic;html=1;rounded=0;" parent="Cr7AIB8-x1aL-NXQXFv3-34" source="8l9VhPuDRp_csp2zXiqJ-28" target="8l9VhPuDRp_csp2zXiqJ-28" edge="1">
          <mxGeometry width="50" height="50" relative="1" as="geometry">
            <mxPoint x="60" y="500" as="sourcePoint" />
            <mxPoint x="60" y="540" as="targetPoint" />
            <Array as="points">
              <mxPoint x="100" y="500" />
              <mxPoint x="110" y="500" />
              <mxPoint x="110" y="540" />
            </Array>
          </mxGeometry>
        </mxCell>
        <mxCell id="8l9VhPuDRp_csp2zXiqJ-33" value="" style="endArrow=classic;html=1;rounded=0;" parent="Cr7AIB8-x1aL-NXQXFv3-34" source="8l9VhPuDRp_csp2zXiqJ-28" target="8l9VhPuDRp_csp2zXiqJ-28" edge="1">
          <mxGeometry width="50" height="50" relative="1" as="geometry">
            <mxPoint x="60" y="550" as="sourcePoint" />
            <mxPoint x="60" y="590" as="targetPoint" />
            <Array as="points">
              <mxPoint x="100" y="550" />
              <mxPoint x="110" y="550" />
              <mxPoint x="110" y="590" />
            </Array>
          </mxGeometry>
        </mxCell>
        <mxCell id="Cr7AIB8-x1aL-NXQXFv3-49" value="" style="endArrow=none;html=1;rounded=0;startArrow=open;startFill=0;" parent="1" edge="1">
          <mxGeometry width="50" height="50" relative="1" as="geometry">
            <mxPoint x="280.00142857142845" y="575" as="sourcePoint" />
            <mxPoint x="280.00142857142845" y="535" as="targetPoint" />
            <Array as="points">
              <mxPoint x="335.93" y="575" />
              <mxPoint x="335.93" y="535" />
            </Array>
          </mxGeometry>
        </mxCell>
        <mxCell id="Cr7AIB8-x1aL-NXQXFv3-50" value="searchContent(String)" style="text;html=1;strokeColor=none;fillColor=none;align=center;verticalAlign=middle;whiteSpace=wrap;rounded=0;" parent="1" vertex="1">
          <mxGeometry x="315" y="568" width="60" height="30" as="geometry" />
        </mxCell>
        <mxCell id="Cr7AIB8-x1aL-NXQXFv3-51" value="" style="endArrow=none;html=1;rounded=0;startArrow=open;startFill=0;" parent="1" edge="1">
          <mxGeometry width="50" height="50" relative="1" as="geometry">
            <mxPoint x="280.00142857142845" y="645" as="sourcePoint" />
            <mxPoint x="280.00142857142845" y="605" as="targetPoint" />
            <Array as="points">
              <mxPoint x="335.93" y="645" />
              <mxPoint x="335.93" y="605" />
            </Array>
          </mxGeometry>
        </mxCell>
        <mxCell id="Cr7AIB8-x1aL-NXQXFv3-52" value="listContent()" style="text;html=1;strokeColor=none;fillColor=none;align=center;verticalAlign=middle;whiteSpace=wrap;rounded=0;" parent="1" vertex="1">
          <mxGeometry x="294" y="638" width="60" height="30" as="geometry" />
        </mxCell>
        <mxCell id="Cr7AIB8-x1aL-NXQXFv3-54" value="" style="html=1;points=[];perimeter=orthogonalPerimeter;outlineConnect=0;targetShapes=umlLifeline;portConstraint=eastwest;newEdgeStyle={&quot;edgeStyle&quot;:&quot;elbowEdgeStyle&quot;,&quot;elbow&quot;:&quot;vertical&quot;,&quot;curved&quot;:0,&quot;rounded&quot;:0};" parent="1" vertex="1">
          <mxGeometry x="270" y="260" width="10" height="120" as="geometry" />
        </mxCell>
        <mxCell id="aM9ryv3xv72pqoxQDRHE-3" value="arrival" style="html=1;verticalAlign=bottom;startArrow=none;endArrow=block;startSize=8;edgeStyle=elbowEdgeStyle;elbow=vertical;curved=0;rounded=0;startFill=0;" parent="1" edge="1">
          <mxGeometry relative="1" as="geometry">
            <mxPoint x="170" y="260" as="sourcePoint" />
            <mxPoint x="270" y="260" as="targetPoint" />
          </mxGeometry>
        </mxCell>
        <mxCell id="Cr7AIB8-x1aL-NXQXFv3-57" value="" style="endArrow=none;dashed=1;html=1;rounded=0;startArrow=none;" parent="1" edge="1">
          <mxGeometry width="50" height="50" relative="1" as="geometry">
            <mxPoint x="170" y="260" as="sourcePoint" />
            <mxPoint x="170" y="130" as="targetPoint" />
          </mxGeometry>
        </mxCell>
        <mxCell id="Cr7AIB8-x1aL-NXQXFv3-60" value="" style="endArrow=classic;html=1;rounded=0;" parent="1" target="aM9ryv3xv72pqoxQDRHE-5" edge="1">
          <mxGeometry width="50" height="50" relative="1" as="geometry">
            <mxPoint x="280" y="270" as="sourcePoint" />
            <mxPoint x="650" y="270" as="targetPoint" />
          </mxGeometry>
        </mxCell>
        <mxCell id="Cr7AIB8-x1aL-NXQXFv3-65" value="showContent()" style="text;html=1;strokeColor=none;fillColor=none;align=center;verticalAlign=middle;whiteSpace=wrap;rounded=0;" parent="1" vertex="1">
          <mxGeometry x="480" y="248" width="60" height="30" as="geometry" />
        </mxCell>
        <mxCell id="Cr7AIB8-x1aL-NXQXFv3-67" value="" style="endArrow=classic;html=1;rounded=0;" parent="1" edge="1">
          <mxGeometry width="50" height="50" relative="1" as="geometry">
            <mxPoint x="770" y="330" as="sourcePoint" />
            <mxPoint x="770" y="330" as="targetPoint" />
          </mxGeometry>
        </mxCell>
        <mxCell id="Cr7AIB8-x1aL-NXQXFv3-68" value="" style="endArrow=classic;html=1;rounded=0;entryX=0.25;entryY=0.019;entryDx=0;entryDy=0;entryPerimeter=0;" parent="1" source="Cr7AIB8-x1aL-NXQXFv3-61" target="Cr7AIB8-x1aL-NXQXFv3-7" edge="1">
          <mxGeometry width="50" height="50" relative="1" as="geometry">
            <mxPoint x="730" y="290" as="sourcePoint" />
            <mxPoint x="830" y="260" as="targetPoint" />
          </mxGeometry>
        </mxCell>
        <mxCell id="Cr7AIB8-x1aL-NXQXFv3-69" value="getLikes()" style="text;html=1;strokeColor=none;fillColor=none;align=center;verticalAlign=middle;whiteSpace=wrap;rounded=0;" parent="1" vertex="1">
          <mxGeometry x="760" y="258" width="60" height="30" as="geometry" />
        </mxCell>
        <mxCell id="Cr7AIB8-x1aL-NXQXFv3-70" value="" style="endArrow=none;dashed=1;html=1;rounded=0;startArrow=open;startFill=0;" parent="1" source="Cr7AIB8-x1aL-NXQXFv3-61" target="Cr7AIB8-x1aL-NXQXFv3-7" edge="1">
          <mxGeometry width="50" height="50" relative="1" as="geometry">
            <mxPoint x="790" y="300" as="sourcePoint" />
            <mxPoint x="830" y="300" as="targetPoint" />
          </mxGeometry>
        </mxCell>
        <mxCell id="Cr7AIB8-x1aL-NXQXFv3-71" value="likesCount" style="text;html=1;strokeColor=none;fillColor=none;align=center;verticalAlign=middle;whiteSpace=wrap;rounded=0;" parent="1" vertex="1">
          <mxGeometry x="760" y="278" width="60" height="30" as="geometry" />
        </mxCell>
        <mxCell id="Cr7AIB8-x1aL-NXQXFv3-73" value="" style="endArrow=classic;html=1;rounded=0;" parent="1" source="Cr7AIB8-x1aL-NXQXFv3-61" target="Cr7AIB8-x1aL-NXQXFv3-66" edge="1">
          <mxGeometry width="50" height="50" relative="1" as="geometry">
            <mxPoint x="730" y="310" as="sourcePoint" />
            <mxPoint x="950" y="320" as="targetPoint" />
          </mxGeometry>
        </mxCell>
        <mxCell id="Cr7AIB8-x1aL-NXQXFv3-74" value="getComments()" style="text;html=1;strokeColor=none;fillColor=none;align=center;verticalAlign=middle;whiteSpace=wrap;rounded=0;" parent="1" vertex="1">
          <mxGeometry x="890" y="289" width="60" height="30" as="geometry" />
        </mxCell>
        <mxCell id="Cr7AIB8-x1aL-NXQXFv3-76" value="" style="endArrow=none;dashed=1;html=1;rounded=0;startArrow=open;startFill=0;" parent="1" source="Cr7AIB8-x1aL-NXQXFv3-61" target="Cr7AIB8-x1aL-NXQXFv3-66" edge="1">
          <mxGeometry width="50" height="50" relative="1" as="geometry">
            <mxPoint x="770" y="330" as="sourcePoint" />
            <mxPoint x="940" y="340" as="targetPoint" />
            <Array as="points">
              <mxPoint x="880" y="330" />
            </Array>
          </mxGeometry>
        </mxCell>
        <mxCell id="Cr7AIB8-x1aL-NXQXFv3-77" value="comments" style="text;html=1;strokeColor=none;fillColor=none;align=center;verticalAlign=middle;whiteSpace=wrap;rounded=0;" parent="1" vertex="1">
          <mxGeometry x="780" y="309" width="60" height="30" as="geometry" />
        </mxCell>
        <mxCell id="7" value="signUp(String,String,String,String)" style="html=1;verticalAlign=bottom;startArrow=none;endArrow=block;startSize=8;edgeStyle=elbowEdgeStyle;elbow=vertical;curved=0;rounded=0;startFill=0;" parent="1" target="Cr7AIB8-x1aL-NXQXFv3-29" edge="1">
          <mxGeometry x="0.2025" y="-20" relative="1" as="geometry">
            <mxPoint x="280" y="350" as="sourcePoint" />
            <mxPoint x="270" y="350" as="targetPoint" />
            <mxPoint as="offset" />
          </mxGeometry>
        </mxCell>
        <mxCell id="8" value="" style="html=1;points=[];perimeter=orthogonalPerimeter;outlineConnect=0;targetShapes=umlLifeline;portConstraint=eastwest;newEdgeStyle={&quot;edgeStyle&quot;:&quot;elbowEdgeStyle&quot;,&quot;elbow&quot;:&quot;vertical&quot;,&quot;curved&quot;:0,&quot;rounded&quot;:0};" parent="1" vertex="1">
          <mxGeometry x="575" y="350" width="10" height="20" as="geometry" />
        </mxCell>
        <mxCell id="8l9VhPuDRp_csp2zXiqJ-8" value="" style="html=1;points=[];perimeter=orthogonalPerimeter;outlineConnect=0;targetShapes=umlLifeline;portConstraint=eastwest;newEdgeStyle={&quot;edgeStyle&quot;:&quot;elbowEdgeStyle&quot;,&quot;elbow&quot;:&quot;vertical&quot;,&quot;curved&quot;:0,&quot;rounded&quot;:0};" parent="1" vertex="1">
          <mxGeometry x="715" y="440" width="10" height="60" as="geometry" />
        </mxCell>
        <mxCell id="8l9VhPuDRp_csp2zXiqJ-9" value="" style="html=1;points=[];perimeter=orthogonalPerimeter;outlineConnect=0;targetShapes=umlLifeline;portConstraint=eastwest;newEdgeStyle={&quot;edgeStyle&quot;:&quot;elbowEdgeStyle&quot;,&quot;elbow&quot;:&quot;vertical&quot;,&quot;curved&quot;:0,&quot;rounded&quot;:0};" parent="1" vertex="1">
          <mxGeometry x="995" y="480" width="10" height="20" as="geometry" />
        </mxCell>
        <mxCell id="8l9VhPuDRp_csp2zXiqJ-10" value="" style="html=1;points=[];perimeter=orthogonalPerimeter;outlineConnect=0;targetShapes=umlLifeline;portConstraint=eastwest;newEdgeStyle={&quot;edgeStyle&quot;:&quot;elbowEdgeStyle&quot;,&quot;elbow&quot;:&quot;vertical&quot;,&quot;curved&quot;:0,&quot;rounded&quot;:0};" parent="1" vertex="1">
          <mxGeometry x="855" y="450" width="10" height="20" as="geometry" />
        </mxCell>
        <mxCell id="8l9VhPuDRp_csp2zXiqJ-12" value="arrival" style="html=1;verticalAlign=bottom;startArrow=none;endArrow=block;startSize=8;edgeStyle=elbowEdgeStyle;elbow=vertical;curved=0;rounded=0;startFill=0;" parent="1" edge="1">
          <mxGeometry relative="1" as="geometry">
            <mxPoint x="120" y="430" as="sourcePoint" />
            <mxPoint x="270" y="430" as="targetPoint" />
          </mxGeometry>
        </mxCell>
        <mxCell id="8l9VhPuDRp_csp2zXiqJ-14" value="" style="endArrow=classic;html=1;rounded=0;" parent="1" edge="1">
          <mxGeometry width="50" height="50" relative="1" as="geometry">
            <mxPoint x="280" y="440" as="sourcePoint" />
            <mxPoint x="720" y="440" as="targetPoint" />
          </mxGeometry>
        </mxCell>
        <mxCell id="8l9VhPuDRp_csp2zXiqJ-15" value="showContent()" style="text;html=1;strokeColor=none;fillColor=none;align=center;verticalAlign=middle;whiteSpace=wrap;rounded=0;" parent="1" vertex="1">
          <mxGeometry x="480" y="417" width="60" height="30" as="geometry" />
        </mxCell>
        <mxCell id="8l9VhPuDRp_csp2zXiqJ-16" value="" style="endArrow=classic;html=1;rounded=0;" parent="1" edge="1">
          <mxGeometry width="50" height="50" relative="1" as="geometry">
            <mxPoint x="770" y="500" as="sourcePoint" />
            <mxPoint x="770" y="500" as="targetPoint" />
          </mxGeometry>
        </mxCell>
        <mxCell id="8l9VhPuDRp_csp2zXiqJ-17" value="" style="endArrow=classic;html=1;rounded=0;entryX=0.25;entryY=0.019;entryDx=0;entryDy=0;entryPerimeter=0;" parent="1" source="8l9VhPuDRp_csp2zXiqJ-8" target="8l9VhPuDRp_csp2zXiqJ-10" edge="1">
          <mxGeometry width="50" height="50" relative="1" as="geometry">
            <mxPoint x="730" y="460" as="sourcePoint" />
            <mxPoint x="830" y="430" as="targetPoint" />
          </mxGeometry>
        </mxCell>
        <mxCell id="8l9VhPuDRp_csp2zXiqJ-18" value="getLikes()" style="text;html=1;strokeColor=none;fillColor=none;align=center;verticalAlign=middle;whiteSpace=wrap;rounded=0;" parent="1" vertex="1">
          <mxGeometry x="760" y="427" width="60" height="30" as="geometry" />
        </mxCell>
        <mxCell id="8l9VhPuDRp_csp2zXiqJ-19" value="" style="endArrow=none;dashed=1;html=1;rounded=0;startArrow=open;startFill=0;" parent="1" source="8l9VhPuDRp_csp2zXiqJ-8" target="8l9VhPuDRp_csp2zXiqJ-10" edge="1">
          <mxGeometry width="50" height="50" relative="1" as="geometry">
            <mxPoint x="790" y="470" as="sourcePoint" />
            <mxPoint x="830" y="470" as="targetPoint" />
          </mxGeometry>
        </mxCell>
        <mxCell id="8l9VhPuDRp_csp2zXiqJ-20" value="likesCount" style="text;html=1;strokeColor=none;fillColor=none;align=center;verticalAlign=middle;whiteSpace=wrap;rounded=0;" parent="1" vertex="1">
          <mxGeometry x="760" y="449" width="60" height="30" as="geometry" />
        </mxCell>
        <mxCell id="8l9VhPuDRp_csp2zXiqJ-21" value="" style="endArrow=classic;html=1;rounded=0;" parent="1" source="8l9VhPuDRp_csp2zXiqJ-8" target="8l9VhPuDRp_csp2zXiqJ-9" edge="1">
          <mxGeometry width="50" height="50" relative="1" as="geometry">
            <mxPoint x="730" y="480" as="sourcePoint" />
            <mxPoint x="950" y="490" as="targetPoint" />
          </mxGeometry>
        </mxCell>
        <mxCell id="8l9VhPuDRp_csp2zXiqJ-22" value="getComments()" style="text;html=1;strokeColor=none;fillColor=none;align=center;verticalAlign=middle;whiteSpace=wrap;rounded=0;" parent="1" vertex="1">
          <mxGeometry x="890" y="458" width="60" height="30" as="geometry" />
        </mxCell>
        <mxCell id="8l9VhPuDRp_csp2zXiqJ-23" value="" style="endArrow=none;dashed=1;html=1;rounded=0;startArrow=open;startFill=0;" parent="1" source="8l9VhPuDRp_csp2zXiqJ-8" target="8l9VhPuDRp_csp2zXiqJ-9" edge="1">
          <mxGeometry width="50" height="50" relative="1" as="geometry">
            <mxPoint x="770" y="500" as="sourcePoint" />
            <mxPoint x="940" y="510" as="targetPoint" />
            <Array as="points">
              <mxPoint x="880" y="500" />
            </Array>
          </mxGeometry>
        </mxCell>
        <mxCell id="8l9VhPuDRp_csp2zXiqJ-24" value="comments" style="text;html=1;strokeColor=none;fillColor=none;align=center;verticalAlign=middle;whiteSpace=wrap;rounded=0;" parent="1" vertex="1">
          <mxGeometry x="780" y="479" width="60" height="30" as="geometry" />
        </mxCell>
        <mxCell id="8l9VhPuDRp_csp2zXiqJ-25" value="login(String,String)" style="html=1;verticalAlign=bottom;startArrow=none;endArrow=block;startSize=8;edgeStyle=elbowEdgeStyle;elbow=vertical;curved=0;rounded=0;startFill=0;" parent="1" target="Cr7AIB8-x1aL-NXQXFv3-24" edge="1">
          <mxGeometry relative="1" as="geometry">
            <mxPoint x="280" y="520" as="sourcePoint" />
            <mxPoint x="410" y="520" as="targetPoint" />
          </mxGeometry>
        </mxCell>
        <mxCell id="8l9VhPuDRp_csp2zXiqJ-27" value="" style="endArrow=classic;html=1;rounded=0;" parent="1" target="Cr7AIB8-x1aL-NXQXFv3-34" edge="1">
          <mxGeometry width="50" height="50" relative="1" as="geometry">
            <mxPoint x="440" y="540" as="sourcePoint" />
            <mxPoint x="620" y="540" as="targetPoint" />
          </mxGeometry>
        </mxCell>
        <mxCell id="8l9VhPuDRp_csp2zXiqJ-29" value=":User" style="shape=umlLifeline;perimeter=lifelinePerimeter;whiteSpace=wrap;html=1;container=0;dropTarget=0;collapsible=0;recursiveResize=0;outlineConnect=0;portConstraint=eastwest;newEdgeStyle={&quot;edgeStyle&quot;:&quot;elbowEdgeStyle&quot;,&quot;elbow&quot;:&quot;vertical&quot;,&quot;curved&quot;:0,&quot;rounded&quot;:0};" parent="1" vertex="1">
          <mxGeometry x="1230" y="50" width="100" height="1630" as="geometry" />
        </mxCell>
        <mxCell id="8l9VhPuDRp_csp2zXiqJ-30" value="" style="html=1;points=[];perimeter=orthogonalPerimeter;outlineConnect=0;targetShapes=umlLifeline;portConstraint=eastwest;newEdgeStyle={&quot;edgeStyle&quot;:&quot;elbowEdgeStyle&quot;,&quot;elbow&quot;:&quot;vertical&quot;,&quot;curved&quot;:0,&quot;rounded&quot;:0};" parent="8l9VhPuDRp_csp2zXiqJ-29" vertex="1">
          <mxGeometry x="45" y="310" width="10" height="20" as="geometry" />
        </mxCell>
        <mxCell id="eMwaslhEiThWYDU8rAF3-39" value="" style="html=1;points=[];perimeter=orthogonalPerimeter;outlineConnect=0;targetShapes=umlLifeline;portConstraint=eastwest;newEdgeStyle={&quot;edgeStyle&quot;:&quot;elbowEdgeStyle&quot;,&quot;elbow&quot;:&quot;vertical&quot;,&quot;curved&quot;:0,&quot;rounded&quot;:0};" parent="8l9VhPuDRp_csp2zXiqJ-29" vertex="1">
          <mxGeometry x="45" y="1300" width="10" height="20" as="geometry" />
        </mxCell>
        <mxCell id="8l9VhPuDRp_csp2zXiqJ-31" value="" style="endArrow=classic;html=1;rounded=0;" parent="1" source="8" target="8l9VhPuDRp_csp2zXiqJ-29" edge="1">
          <mxGeometry width="50" height="50" relative="1" as="geometry">
            <mxPoint x="1070" y="360" as="sourcePoint" />
            <mxPoint x="1220" y="360" as="targetPoint" />
          </mxGeometry>
        </mxCell>
        <mxCell id="8l9VhPuDRp_csp2zXiqJ-35" value="updateEmail(String)" style="text;html=1;align=center;verticalAlign=middle;resizable=0;points=[];autosize=1;strokeColor=none;fillColor=none;" parent="1" vertex="1">
          <mxGeometry x="1135" y="555" width="130" height="30" as="geometry" />
        </mxCell>
        <mxCell id="8l9VhPuDRp_csp2zXiqJ-36" value="updatePassword(String)" style="text;html=1;align=center;verticalAlign=middle;resizable=0;points=[];autosize=1;strokeColor=none;fillColor=none;" parent="1" vertex="1">
          <mxGeometry x="1136" y="605" width="150" height="30" as="geometry" />
        </mxCell>
        <mxCell id="8l9VhPuDRp_csp2zXiqJ-37" value="" style="endArrow=none;dashed=1;html=1;rounded=0;" parent="1" edge="1">
          <mxGeometry width="50" height="50" relative="1" as="geometry">
            <mxPoint x="120" y="430" as="sourcePoint" />
            <mxPoint x="120" y="120" as="targetPoint" />
          </mxGeometry>
        </mxCell>
        <mxCell id="8l9VhPuDRp_csp2zXiqJ-40" value="" style="endArrow=classic;html=1;rounded=0;" parent="1" target="aM9ryv3xv72pqoxQDRHE-5" edge="1">
          <mxGeometry width="50" height="50" relative="1" as="geometry">
            <mxPoint x="440" y="570" as="sourcePoint" />
            <mxPoint x="650" y="570" as="targetPoint" />
            <Array as="points">
              <mxPoint x="510" y="570" />
            </Array>
          </mxGeometry>
        </mxCell>
        <mxCell id="8l9VhPuDRp_csp2zXiqJ-41" value="showContent()" style="text;html=1;strokeColor=none;fillColor=none;align=center;verticalAlign=middle;whiteSpace=wrap;rounded=0;" parent="1" vertex="1">
          <mxGeometry x="509" y="547" width="60" height="30" as="geometry" />
        </mxCell>
        <mxCell id="8l9VhPuDRp_csp2zXiqJ-54" value="like()" style="text;html=1;align=center;verticalAlign=middle;resizable=0;points=[];autosize=1;strokeColor=none;fillColor=none;" parent="1" vertex="1">
          <mxGeometry x="721" y="574" width="50" height="30" as="geometry" />
        </mxCell>
        <mxCell id="8l9VhPuDRp_csp2zXiqJ-55" value="removeLike()" style="text;html=1;align=center;verticalAlign=middle;resizable=0;points=[];autosize=1;strokeColor=none;fillColor=none;" parent="1" vertex="1">
          <mxGeometry x="720" y="605" width="90" height="30" as="geometry" />
        </mxCell>
        <mxCell id="8l9VhPuDRp_csp2zXiqJ-57" value="leaveComment(User,String)" style="text;html=1;align=center;verticalAlign=middle;resizable=0;points=[];autosize=1;strokeColor=none;fillColor=none;" parent="1" vertex="1">
          <mxGeometry x="719" y="635" width="170" height="30" as="geometry" />
        </mxCell>
        <mxCell id="8l9VhPuDRp_csp2zXiqJ-58" value="removeComment(Integer)" style="text;html=1;align=center;verticalAlign=middle;resizable=0;points=[];autosize=1;strokeColor=none;fillColor=none;" parent="1" vertex="1">
          <mxGeometry x="717" y="665" width="160" height="30" as="geometry" />
        </mxCell>
        <mxCell id="8l9VhPuDRp_csp2zXiqJ-61" value="logout()" style="text;html=1;align=center;verticalAlign=middle;resizable=0;points=[];autosize=1;strokeColor=none;fillColor=none;" parent="1" vertex="1">
          <mxGeometry x="316" y="684" width="60" height="30" as="geometry" />
        </mxCell>
        <mxCell id="8l9VhPuDRp_csp2zXiqJ-63" value="" style="html=1;points=[];perimeter=orthogonalPerimeter;outlineConnect=0;targetShapes=umlLifeline;portConstraint=eastwest;newEdgeStyle={&quot;edgeStyle&quot;:&quot;elbowEdgeStyle&quot;,&quot;elbow&quot;:&quot;vertical&quot;,&quot;curved&quot;:0,&quot;rounded&quot;:0};" parent="1" vertex="1">
          <mxGeometry x="715" y="950" width="10" height="250" as="geometry" />
        </mxCell>
        <mxCell id="8l9VhPuDRp_csp2zXiqJ-64" value="" style="endArrow=classic;html=1;rounded=0;" parent="1" source="8l9VhPuDRp_csp2zXiqJ-63" target="8l9VhPuDRp_csp2zXiqJ-63" edge="1">
          <mxGeometry width="50" height="50" relative="1" as="geometry">
            <mxPoint x="730" y="1020" as="sourcePoint" />
            <mxPoint x="730" y="1100" as="targetPoint" />
            <Array as="points">
              <mxPoint x="760" y="1020" />
              <mxPoint x="780" y="1020" />
              <mxPoint x="780" y="1040" />
            </Array>
          </mxGeometry>
        </mxCell>
        <mxCell id="8l9VhPuDRp_csp2zXiqJ-65" value="" style="endArrow=classic;html=1;rounded=0;" parent="1" source="8l9VhPuDRp_csp2zXiqJ-63" target="8l9VhPuDRp_csp2zXiqJ-63" edge="1">
          <mxGeometry width="50" height="50" relative="1" as="geometry">
            <mxPoint x="730" y="1110" as="sourcePoint" />
            <mxPoint x="730" y="1070" as="targetPoint" />
            <Array as="points">
              <mxPoint x="770" y="1050" />
              <mxPoint x="780" y="1050" />
              <mxPoint x="780" y="1070" />
            </Array>
          </mxGeometry>
        </mxCell>
        <mxCell id="8l9VhPuDRp_csp2zXiqJ-66" value="" style="html=1;points=[];perimeter=orthogonalPerimeter;outlineConnect=0;targetShapes=umlLifeline;portConstraint=eastwest;newEdgeStyle={&quot;edgeStyle&quot;:&quot;elbowEdgeStyle&quot;,&quot;elbow&quot;:&quot;vertical&quot;,&quot;curved&quot;:0,&quot;rounded&quot;:0};" parent="1" vertex="1">
          <mxGeometry x="425" y="900" width="10" height="300" as="geometry" />
        </mxCell>
        <mxCell id="8l9VhPuDRp_csp2zXiqJ-67" value="" style="html=1;points=[];perimeter=orthogonalPerimeter;outlineConnect=0;targetShapes=umlLifeline;portConstraint=eastwest;newEdgeStyle={&quot;edgeStyle&quot;:&quot;elbowEdgeStyle&quot;,&quot;elbow&quot;:&quot;vertical&quot;,&quot;curved&quot;:0,&quot;rounded&quot;:0};" parent="1" vertex="1">
          <mxGeometry x="1135" y="920" width="10" height="110" as="geometry" />
        </mxCell>
        <mxCell id="8l9VhPuDRp_csp2zXiqJ-68" value="" style="html=1;points=[];perimeter=orthogonalPerimeter;outlineConnect=0;targetShapes=umlLifeline;portConstraint=eastwest;newEdgeStyle={&quot;edgeStyle&quot;:&quot;elbowEdgeStyle&quot;,&quot;elbow&quot;:&quot;vertical&quot;,&quot;curved&quot;:0,&quot;rounded&quot;:0};" parent="1" vertex="1">
          <mxGeometry x="715" y="820" width="10" height="60" as="geometry" />
        </mxCell>
        <mxCell id="8l9VhPuDRp_csp2zXiqJ-69" value="" style="html=1;points=[];perimeter=orthogonalPerimeter;outlineConnect=0;targetShapes=umlLifeline;portConstraint=eastwest;newEdgeStyle={&quot;edgeStyle&quot;:&quot;elbowEdgeStyle&quot;,&quot;elbow&quot;:&quot;vertical&quot;,&quot;curved&quot;:0,&quot;rounded&quot;:0};" parent="1" vertex="1">
          <mxGeometry x="995" y="860" width="10" height="20" as="geometry" />
        </mxCell>
        <mxCell id="8l9VhPuDRp_csp2zXiqJ-70" value="" style="html=1;points=[];perimeter=orthogonalPerimeter;outlineConnect=0;targetShapes=umlLifeline;portConstraint=eastwest;newEdgeStyle={&quot;edgeStyle&quot;:&quot;elbowEdgeStyle&quot;,&quot;elbow&quot;:&quot;vertical&quot;,&quot;curved&quot;:0,&quot;rounded&quot;:0};" parent="1" vertex="1">
          <mxGeometry x="855" y="830" width="10" height="20" as="geometry" />
        </mxCell>
        <mxCell id="8l9VhPuDRp_csp2zXiqJ-71" value="" style="html=1;points=[];perimeter=orthogonalPerimeter;outlineConnect=0;targetShapes=umlLifeline;portConstraint=eastwest;newEdgeStyle={&quot;edgeStyle&quot;:&quot;elbowEdgeStyle&quot;,&quot;elbow&quot;:&quot;vertical&quot;,&quot;curved&quot;:0,&quot;rounded&quot;:0};" parent="1" vertex="1">
          <mxGeometry x="270" y="810" width="10" height="410" as="geometry" />
        </mxCell>
        <mxCell id="8l9VhPuDRp_csp2zXiqJ-72" value="arrival" style="html=1;verticalAlign=bottom;startArrow=none;endArrow=block;startSize=8;edgeStyle=elbowEdgeStyle;elbow=vertical;curved=0;rounded=0;startFill=0;" parent="1" edge="1">
          <mxGeometry relative="1" as="geometry">
            <mxPoint x="60" y="810" as="sourcePoint" />
            <mxPoint x="270" y="810" as="targetPoint" />
          </mxGeometry>
        </mxCell>
        <mxCell id="8l9VhPuDRp_csp2zXiqJ-73" value="" style="endArrow=classic;html=1;rounded=0;" parent="1" edge="1">
          <mxGeometry width="50" height="50" relative="1" as="geometry">
            <mxPoint x="280" y="820" as="sourcePoint" />
            <mxPoint x="720" y="820" as="targetPoint" />
          </mxGeometry>
        </mxCell>
        <mxCell id="8l9VhPuDRp_csp2zXiqJ-74" value="showContent()" style="text;html=1;strokeColor=none;fillColor=none;align=center;verticalAlign=middle;whiteSpace=wrap;rounded=0;" parent="1" vertex="1">
          <mxGeometry x="480" y="797" width="60" height="30" as="geometry" />
        </mxCell>
        <mxCell id="8l9VhPuDRp_csp2zXiqJ-75" value="" style="endArrow=classic;html=1;rounded=0;" parent="1" edge="1">
          <mxGeometry width="50" height="50" relative="1" as="geometry">
            <mxPoint x="770" y="880" as="sourcePoint" />
            <mxPoint x="770" y="880" as="targetPoint" />
          </mxGeometry>
        </mxCell>
        <mxCell id="8l9VhPuDRp_csp2zXiqJ-76" value="" style="endArrow=classic;html=1;rounded=0;entryX=0.25;entryY=0.019;entryDx=0;entryDy=0;entryPerimeter=0;" parent="1" source="8l9VhPuDRp_csp2zXiqJ-68" target="8l9VhPuDRp_csp2zXiqJ-70" edge="1">
          <mxGeometry width="50" height="50" relative="1" as="geometry">
            <mxPoint x="730" y="840" as="sourcePoint" />
            <mxPoint x="830" y="810" as="targetPoint" />
          </mxGeometry>
        </mxCell>
        <mxCell id="8l9VhPuDRp_csp2zXiqJ-77" value="getLikes()" style="text;html=1;strokeColor=none;fillColor=none;align=center;verticalAlign=middle;whiteSpace=wrap;rounded=0;" parent="1" vertex="1">
          <mxGeometry x="760" y="808" width="60" height="30" as="geometry" />
        </mxCell>
        <mxCell id="8l9VhPuDRp_csp2zXiqJ-78" value="" style="endArrow=none;dashed=1;html=1;rounded=0;startArrow=open;startFill=0;" parent="1" source="8l9VhPuDRp_csp2zXiqJ-68" target="8l9VhPuDRp_csp2zXiqJ-70" edge="1">
          <mxGeometry width="50" height="50" relative="1" as="geometry">
            <mxPoint x="790" y="850" as="sourcePoint" />
            <mxPoint x="830" y="850" as="targetPoint" />
          </mxGeometry>
        </mxCell>
        <mxCell id="8l9VhPuDRp_csp2zXiqJ-79" value="likesCount" style="text;html=1;strokeColor=none;fillColor=none;align=center;verticalAlign=middle;whiteSpace=wrap;rounded=0;" parent="1" vertex="1">
          <mxGeometry x="760" y="829" width="60" height="30" as="geometry" />
        </mxCell>
        <mxCell id="8l9VhPuDRp_csp2zXiqJ-80" value="" style="endArrow=classic;html=1;rounded=0;" parent="1" source="8l9VhPuDRp_csp2zXiqJ-68" target="8l9VhPuDRp_csp2zXiqJ-69" edge="1">
          <mxGeometry width="50" height="50" relative="1" as="geometry">
            <mxPoint x="730" y="860" as="sourcePoint" />
            <mxPoint x="950" y="870" as="targetPoint" />
          </mxGeometry>
        </mxCell>
        <mxCell id="8l9VhPuDRp_csp2zXiqJ-81" value="getComments()" style="text;html=1;strokeColor=none;fillColor=none;align=center;verticalAlign=middle;whiteSpace=wrap;rounded=0;" parent="1" vertex="1">
          <mxGeometry x="890" y="840" width="60" height="30" as="geometry" />
        </mxCell>
        <mxCell id="8l9VhPuDRp_csp2zXiqJ-82" value="" style="endArrow=none;dashed=1;html=1;rounded=0;startArrow=open;startFill=0;" parent="1" source="8l9VhPuDRp_csp2zXiqJ-68" target="8l9VhPuDRp_csp2zXiqJ-69" edge="1">
          <mxGeometry width="50" height="50" relative="1" as="geometry">
            <mxPoint x="770" y="880" as="sourcePoint" />
            <mxPoint x="940" y="890" as="targetPoint" />
            <Array as="points">
              <mxPoint x="880" y="880" />
            </Array>
          </mxGeometry>
        </mxCell>
        <mxCell id="8l9VhPuDRp_csp2zXiqJ-83" value="comments" style="text;html=1;strokeColor=none;fillColor=none;align=center;verticalAlign=middle;whiteSpace=wrap;rounded=0;" parent="1" vertex="1">
          <mxGeometry x="780" y="858" width="60" height="30" as="geometry" />
        </mxCell>
        <mxCell id="8l9VhPuDRp_csp2zXiqJ-84" value="login(String,String)" style="html=1;verticalAlign=bottom;startArrow=none;endArrow=block;startSize=8;edgeStyle=elbowEdgeStyle;elbow=vertical;curved=0;rounded=0;startFill=0;" parent="1" edge="1">
          <mxGeometry relative="1" as="geometry">
            <mxPoint x="280" y="900" as="sourcePoint" />
            <mxPoint x="430" y="900" as="targetPoint" />
          </mxGeometry>
        </mxCell>
        <mxCell id="8l9VhPuDRp_csp2zXiqJ-85" value="" style="endArrow=classic;html=1;rounded=0;" parent="1" edge="1">
          <mxGeometry width="50" height="50" relative="1" as="geometry">
            <mxPoint x="440" y="920" as="sourcePoint" />
            <mxPoint x="1139" y="920" as="targetPoint" />
          </mxGeometry>
        </mxCell>
        <mxCell id="8l9VhPuDRp_csp2zXiqJ-86" value="" style="endArrow=classic;html=1;rounded=0;" parent="1" source="8l9VhPuDRp_csp2zXiqJ-67" target="8l9VhPuDRp_csp2zXiqJ-67" edge="1">
          <mxGeometry width="50" height="50" relative="1" as="geometry">
            <mxPoint x="1150" y="930" as="sourcePoint" />
            <mxPoint x="1150" y="970" as="targetPoint" />
            <Array as="points">
              <mxPoint x="1190" y="930" />
              <mxPoint x="1200" y="930" />
              <mxPoint x="1200" y="970" />
            </Array>
          </mxGeometry>
        </mxCell>
        <mxCell id="8l9VhPuDRp_csp2zXiqJ-87" value="" style="endArrow=classic;html=1;rounded=0;" parent="1" source="8l9VhPuDRp_csp2zXiqJ-67" target="8l9VhPuDRp_csp2zXiqJ-67" edge="1">
          <mxGeometry width="50" height="50" relative="1" as="geometry">
            <mxPoint x="1150" y="980" as="sourcePoint" />
            <mxPoint x="1150" y="1020" as="targetPoint" />
            <Array as="points">
              <mxPoint x="1190" y="980" />
              <mxPoint x="1200" y="980" />
              <mxPoint x="1200" y="1020" />
            </Array>
          </mxGeometry>
        </mxCell>
        <mxCell id="8l9VhPuDRp_csp2zXiqJ-92" value="" style="endArrow=classic;html=1;rounded=0;" parent="1" edge="1">
          <mxGeometry width="50" height="50" relative="1" as="geometry">
            <mxPoint x="440" y="950" as="sourcePoint" />
            <mxPoint x="720" y="950" as="targetPoint" />
            <Array as="points">
              <mxPoint x="510" y="950" />
            </Array>
          </mxGeometry>
        </mxCell>
        <mxCell id="8l9VhPuDRp_csp2zXiqJ-93" value="showContent()" style="text;html=1;strokeColor=none;fillColor=none;align=center;verticalAlign=middle;whiteSpace=wrap;rounded=0;" parent="1" vertex="1">
          <mxGeometry x="511" y="927" width="60" height="30" as="geometry" />
        </mxCell>
        <mxCell id="8l9VhPuDRp_csp2zXiqJ-94" value="" style="endArrow=classic;html=1;rounded=0;" parent="1" edge="1">
          <mxGeometry width="50" height="50" relative="1" as="geometry">
            <mxPoint x="726" y="960" as="sourcePoint" />
            <mxPoint x="725" y="980" as="targetPoint" />
            <Array as="points">
              <mxPoint x="776" y="960" />
              <mxPoint x="786" y="960" />
              <mxPoint x="786" y="980" />
            </Array>
          </mxGeometry>
        </mxCell>
        <mxCell id="8l9VhPuDRp_csp2zXiqJ-95" value="" style="endArrow=classic;html=1;rounded=0;" parent="1" edge="1">
          <mxGeometry width="50" height="50" relative="1" as="geometry">
            <mxPoint x="725" y="990" as="sourcePoint" />
            <mxPoint x="725" y="1010" as="targetPoint" />
            <Array as="points">
              <mxPoint x="786" y="990" />
              <mxPoint x="786" y="1010" />
            </Array>
          </mxGeometry>
        </mxCell>
        <mxCell id="8l9VhPuDRp_csp2zXiqJ-100" value="" style="endArrow=none;html=1;rounded=0;startArrow=classic;startFill=1;endFill=0;" parent="1" target="8l9VhPuDRp_csp2zXiqJ-71" edge="1">
          <mxGeometry width="50" height="50" relative="1" as="geometry">
            <mxPoint x="424" y="1200" as="sourcePoint" />
            <mxPoint x="289" y="1200" as="targetPoint" />
          </mxGeometry>
        </mxCell>
        <mxCell id="8l9VhPuDRp_csp2zXiqJ-101" value="logout()" style="text;html=1;align=center;verticalAlign=middle;resizable=0;points=[];autosize=1;strokeColor=none;fillColor=none;" parent="1" vertex="1">
          <mxGeometry x="320" y="1173" width="60" height="30" as="geometry" />
        </mxCell>
        <mxCell id="8l9VhPuDRp_csp2zXiqJ-102" value="" style="endArrow=none;dashed=1;html=1;rounded=0;" parent="1" edge="1">
          <mxGeometry width="50" height="50" relative="1" as="geometry">
            <mxPoint x="60" y="810" as="sourcePoint" />
            <mxPoint x="60" y="130" as="targetPoint" />
          </mxGeometry>
        </mxCell>
        <mxCell id="8l9VhPuDRp_csp2zXiqJ-103" value="" style="endArrow=classic;html=1;rounded=0;" parent="1" target="8l9VhPuDRp_csp2zXiqJ-63" edge="1">
          <mxGeometry width="50" height="50" relative="1" as="geometry">
            <mxPoint x="724" y="1110" as="sourcePoint" />
            <mxPoint x="730" y="1130" as="targetPoint" />
            <Array as="points">
              <mxPoint x="765" y="1110" />
              <mxPoint x="785" y="1110" />
              <mxPoint x="785" y="1130" />
            </Array>
          </mxGeometry>
        </mxCell>
        <mxCell id="8l9VhPuDRp_csp2zXiqJ-104" value="" style="endArrow=classic;html=1;rounded=0;" parent="1" source="8l9VhPuDRp_csp2zXiqJ-63" edge="1">
          <mxGeometry width="50" height="50" relative="1" as="geometry">
            <mxPoint x="730" y="1140" as="sourcePoint" />
            <mxPoint x="724" y="1160" as="targetPoint" />
            <Array as="points">
              <mxPoint x="775" y="1140" />
              <mxPoint x="785" y="1140" />
              <mxPoint x="785" y="1160" />
            </Array>
          </mxGeometry>
        </mxCell>
        <mxCell id="8l9VhPuDRp_csp2zXiqJ-105" value="" style="endArrow=classic;html=1;rounded=0;" parent="1" edge="1">
          <mxGeometry width="50" height="50" relative="1" as="geometry">
            <mxPoint x="724" y="1080" as="sourcePoint" />
            <mxPoint x="724" y="1100" as="targetPoint" />
            <Array as="points">
              <mxPoint x="785" y="1080" />
              <mxPoint x="785" y="1100" />
            </Array>
          </mxGeometry>
        </mxCell>
        <mxCell id="8l9VhPuDRp_csp2zXiqJ-106" value="post(User,String,String,String)" style="text;html=1;align=center;verticalAlign=middle;resizable=0;points=[];autosize=1;strokeColor=none;fillColor=none;" parent="1" vertex="1">
          <mxGeometry x="721" y="1075" width="180" height="30" as="geometry" />
        </mxCell>
        <mxCell id="8l9VhPuDRp_csp2zXiqJ-107" value="update(User,String,String,String)" style="text;html=1;align=center;verticalAlign=middle;resizable=0;points=[];autosize=1;strokeColor=none;fillColor=none;" parent="1" vertex="1">
          <mxGeometry x="717" y="1105" width="200" height="30" as="geometry" />
        </mxCell>
        <mxCell id="8l9VhPuDRp_csp2zXiqJ-108" value="delete()" style="text;html=1;align=center;verticalAlign=middle;resizable=0;points=[];autosize=1;strokeColor=none;fillColor=none;" parent="1" vertex="1">
          <mxGeometry x="723" y="1135" width="60" height="30" as="geometry" />
        </mxCell>
        <mxCell id="8l9VhPuDRp_csp2zXiqJ-11" value="" style="html=1;points=[];perimeter=orthogonalPerimeter;outlineConnect=0;targetShapes=umlLifeline;portConstraint=eastwest;newEdgeStyle={&quot;edgeStyle&quot;:&quot;elbowEdgeStyle&quot;,&quot;elbow&quot;:&quot;vertical&quot;,&quot;curved&quot;:0,&quot;rounded&quot;:0};" parent="1" vertex="1">
          <mxGeometry x="270" y="430" width="10" height="290" as="geometry" />
        </mxCell>
        <mxCell id="CyQtG5ASKl8revoDWZop-8" value=":Manager" style="shape=umlLifeline;perimeter=lifelinePerimeter;whiteSpace=wrap;html=1;container=0;dropTarget=0;collapsible=0;recursiveResize=0;outlineConnect=0;portConstraint=eastwest;newEdgeStyle={&quot;edgeStyle&quot;:&quot;elbowEdgeStyle&quot;,&quot;elbow&quot;:&quot;vertical&quot;,&quot;curved&quot;:0,&quot;rounded&quot;:0};" parent="1" vertex="1">
          <mxGeometry x="1370" y="50" width="100" height="1630" as="geometry" />
        </mxCell>
        <mxCell id="eMwaslhEiThWYDU8rAF3-25" value="" style="html=1;points=[];perimeter=orthogonalPerimeter;outlineConnect=0;targetShapes=umlLifeline;portConstraint=eastwest;newEdgeStyle={&quot;edgeStyle&quot;:&quot;elbowEdgeStyle&quot;,&quot;elbow&quot;:&quot;vertical&quot;,&quot;curved&quot;:0,&quot;rounded&quot;:0};" parent="CyQtG5ASKl8revoDWZop-8" vertex="1">
          <mxGeometry x="45" y="1240" width="10" height="230" as="geometry" />
        </mxCell>
        <mxCell id="eMwaslhEiThWYDU8rAF3-44" value="" style="endArrow=none;html=1;rounded=0;startArrow=open;startFill=0;" parent="CyQtG5ASKl8revoDWZop-8" edge="1">
          <mxGeometry width="50" height="50" relative="1" as="geometry">
            <mxPoint x="55" y="1340" as="sourcePoint" />
            <mxPoint x="55" y="1326" as="targetPoint" />
            <Array as="points">
              <mxPoint x="116" y="1340" />
              <mxPoint x="115.93000000000006" y="1326" />
            </Array>
          </mxGeometry>
        </mxCell>
        <mxCell id="eMwaslhEiThWYDU8rAF3-8" value="" style="endArrow=none;html=1;rounded=0;startArrow=open;startFill=0;" parent="1" edge="1">
          <mxGeometry width="50" height="50" relative="1" as="geometry">
            <mxPoint x="280.00142857142845" y="960" as="sourcePoint" />
            <mxPoint x="280.00142857142845" y="920" as="targetPoint" />
            <Array as="points">
              <mxPoint x="335.93" y="960" />
              <mxPoint x="335.93" y="920" />
            </Array>
          </mxGeometry>
        </mxCell>
        <mxCell id="eMwaslhEiThWYDU8rAF3-9" value="searchContent(String)" style="text;html=1;strokeColor=none;fillColor=none;align=center;verticalAlign=middle;whiteSpace=wrap;rounded=0;" parent="1" vertex="1">
          <mxGeometry x="315" y="955" width="60" height="30" as="geometry" />
        </mxCell>
        <mxCell id="eMwaslhEiThWYDU8rAF3-10" value="" style="endArrow=none;html=1;rounded=0;startArrow=open;startFill=0;" parent="1" edge="1">
          <mxGeometry width="50" height="50" relative="1" as="geometry">
            <mxPoint x="280.00142857142845" y="1030" as="sourcePoint" />
            <mxPoint x="280.00142857142845" y="990" as="targetPoint" />
            <Array as="points">
              <mxPoint x="335.93" y="1030" />
              <mxPoint x="335.93" y="990" />
            </Array>
          </mxGeometry>
        </mxCell>
        <mxCell id="eMwaslhEiThWYDU8rAF3-11" value="listContent()" style="text;html=1;strokeColor=none;fillColor=none;align=center;verticalAlign=middle;whiteSpace=wrap;rounded=0;" parent="1" vertex="1">
          <mxGeometry x="288.93" y="1026" width="60" height="30" as="geometry" />
        </mxCell>
        <mxCell id="eMwaslhEiThWYDU8rAF3-12" value="" style="endArrow=none;html=1;rounded=0;startArrow=open;startFill=0;" parent="1" source="Cr7AIB8-x1aL-NXQXFv3-54" edge="1">
          <mxGeometry width="50" height="50" relative="1" as="geometry">
            <mxPoint x="280.00142857142845" y="315" as="sourcePoint" />
            <mxPoint x="280.00142857142845" y="275" as="targetPoint" />
            <Array as="points">
              <mxPoint x="310" y="300" />
              <mxPoint x="336" y="300" />
              <mxPoint x="335.93" y="275" />
            </Array>
          </mxGeometry>
        </mxCell>
        <mxCell id="eMwaslhEiThWYDU8rAF3-13" value="searchContent(String)" style="text;html=1;strokeColor=none;fillColor=none;align=center;verticalAlign=middle;whiteSpace=wrap;rounded=0;" parent="1" vertex="1">
          <mxGeometry x="368" y="273" width="60" height="30" as="geometry" />
        </mxCell>
        <mxCell id="eMwaslhEiThWYDU8rAF3-14" value="" style="endArrow=none;html=1;rounded=0;startArrow=open;startFill=0;" parent="1" target="Cr7AIB8-x1aL-NXQXFv3-54" edge="1">
          <mxGeometry width="50" height="50" relative="1" as="geometry">
            <mxPoint x="280.00142857142845" y="340" as="sourcePoint" />
            <mxPoint x="280.00142857142845" y="300" as="targetPoint" />
            <Array as="points">
              <mxPoint x="335.93" y="340" />
              <mxPoint x="336" y="320" />
            </Array>
          </mxGeometry>
        </mxCell>
        <mxCell id="eMwaslhEiThWYDU8rAF3-15" value="listContent()" style="text;html=1;strokeColor=none;fillColor=none;align=center;verticalAlign=middle;whiteSpace=wrap;rounded=0;" parent="1" vertex="1">
          <mxGeometry x="340" y="316" width="60" height="30" as="geometry" />
        </mxCell>
        <mxCell id="eMwaslhEiThWYDU8rAF3-17" value="" style="endArrow=none;dashed=1;html=1;rounded=0;" parent="1" edge="1">
          <mxGeometry width="50" height="50" relative="1" as="geometry">
            <mxPoint x="20" y="1260" as="sourcePoint" />
            <mxPoint x="20" y="130" as="targetPoint" />
          </mxGeometry>
        </mxCell>
        <mxCell id="eMwaslhEiThWYDU8rAF3-20" value="" style="endArrow=classic;html=1;rounded=0;exitX=1;exitY=0.024;exitDx=0;exitDy=0;exitPerimeter=0;" parent="1" source="eMwaslhEiThWYDU8rAF3-19" target="Cr7AIB8-x1aL-NXQXFv3-24" edge="1">
          <mxGeometry width="50" height="50" relative="1" as="geometry">
            <mxPoint x="330" y="1270" as="sourcePoint" />
            <mxPoint x="390" y="1270" as="targetPoint" />
          </mxGeometry>
        </mxCell>
        <mxCell id="eMwaslhEiThWYDU8rAF3-22" value="" style="endArrow=none;dashed=1;html=1;rounded=0;" parent="1" edge="1">
          <mxGeometry width="50" height="50" relative="1" as="geometry">
            <mxPoint x="20" y="1560" as="sourcePoint" />
            <mxPoint x="20" y="1550" as="targetPoint" />
          </mxGeometry>
        </mxCell>
        <mxCell id="eMwaslhEiThWYDU8rAF3-24" value="login(String,String)" style="text;html=1;align=center;verticalAlign=middle;resizable=0;points=[];autosize=1;strokeColor=none;fillColor=none;" parent="1" vertex="1">
          <mxGeometry x="290" y="1242" width="120" height="30" as="geometry" />
        </mxCell>
        <mxCell id="eMwaslhEiThWYDU8rAF3-26" value="" style="endArrow=classic;html=1;rounded=0;exitX=1.2;exitY=0.067;exitDx=0;exitDy=0;exitPerimeter=0;" parent="1" source="eMwaslhEiThWYDU8rAF3-18" target="CyQtG5ASKl8revoDWZop-8" edge="1">
          <mxGeometry width="50" height="50" relative="1" as="geometry">
            <mxPoint x="490" y="1290" as="sourcePoint" />
            <mxPoint x="950" y="1290" as="targetPoint" />
          </mxGeometry>
        </mxCell>
        <mxCell id="eMwaslhEiThWYDU8rAF3-27" value="getUser()" style="text;html=1;strokeColor=none;fillColor=none;align=center;verticalAlign=middle;whiteSpace=wrap;rounded=0;" parent="1" vertex="1">
          <mxGeometry x="760" y="516" width="60" height="30" as="geometry" />
        </mxCell>
        <mxCell id="eMwaslhEiThWYDU8rAF3-28" value="getUser()" style="text;html=1;strokeColor=none;fillColor=none;align=center;verticalAlign=middle;whiteSpace=wrap;rounded=0;" parent="1" vertex="1">
          <mxGeometry x="751" y="897" width="60" height="30" as="geometry" />
        </mxCell>
        <mxCell id="eMwaslhEiThWYDU8rAF3-29" value="managerPageUpload()" style="text;html=1;strokeColor=none;fillColor=none;align=center;verticalAlign=middle;whiteSpace=wrap;rounded=0;" parent="1" vertex="1">
          <mxGeometry x="900" y="1260" width="60" height="30" as="geometry" />
        </mxCell>
        <mxCell id="eMwaslhEiThWYDU8rAF3-31" value="removeLike()" style="text;strokeColor=none;fillColor=none;align=left;verticalAlign=top;spacingLeft=4;spacingRight=4;overflow=hidden;rotatable=0;points=[[0,0.5],[1,0.5]];portConstraint=eastwest;" parent="1" vertex="1">
          <mxGeometry x="1020" y="1299" width="240" height="26" as="geometry" />
        </mxCell>
        <mxCell id="eMwaslhEiThWYDU8rAF3-32" value="delete()" style="text;strokeColor=none;fillColor=none;align=left;verticalAlign=top;spacingLeft=4;spacingRight=4;overflow=hidden;rotatable=0;points=[[0,0.5],[1,0.5]];portConstraint=eastwest;" parent="1" vertex="1">
          <mxGeometry x="900" y="1399" width="60" height="26" as="geometry" />
        </mxCell>
        <mxCell id="eMwaslhEiThWYDU8rAF3-33" value="archive()" style="text;strokeColor=none;fillColor=none;align=left;verticalAlign=top;spacingLeft=4;spacingRight=4;overflow=hidden;rotatable=0;points=[[0,0.5],[1,0.5]];portConstraint=eastwest;" parent="1" vertex="1">
          <mxGeometry x="1030" y="1449" width="60" height="26" as="geometry" />
        </mxCell>
        <mxCell id="eMwaslhEiThWYDU8rAF3-34" value="removeComment(Integer)" style="text;strokeColor=none;fillColor=none;align=left;verticalAlign=top;spacingLeft=4;spacingRight=4;overflow=hidden;rotatable=0;points=[[0,0.5],[1,0.5]];portConstraint=eastwest;" parent="1" vertex="1">
          <mxGeometry x="1136" y="1359" width="155" height="26" as="geometry" />
        </mxCell>
        <mxCell id="eMwaslhEiThWYDU8rAF3-35" value="updateUserType(User,UserType)" style="text;strokeColor=none;fillColor=none;align=left;verticalAlign=top;spacingLeft=4;spacingRight=4;overflow=hidden;rotatable=0;points=[[0,0.5],[1,0.5]];portConstraint=eastwest;" parent="1" vertex="1">
          <mxGeometry x="1370" y="1380" width="190" height="26" as="geometry" />
        </mxCell>
        <mxCell id="eMwaslhEiThWYDU8rAF3-36" value="getUser(Integer)" style="text;strokeColor=none;fillColor=none;align=left;verticalAlign=top;spacingLeft=4;spacingRight=4;overflow=hidden;rotatable=0;points=[[0,0.5],[1,0.5]];portConstraint=eastwest;" parent="1" vertex="1">
          <mxGeometry x="1300" y="1328" width="100" height="26" as="geometry" />
        </mxCell>
        <mxCell id="eMwaslhEiThWYDU8rAF3-38" value="" style="endArrow=classic;html=1;rounded=0;" parent="1" source="eMwaslhEiThWYDU8rAF3-25" edge="1">
          <mxGeometry width="50" height="50" relative="1" as="geometry">
            <mxPoint x="1407" y="1320" as="sourcePoint" />
            <mxPoint x="866.7592592592596" y="1319.9999999999998" as="targetPoint" />
          </mxGeometry>
        </mxCell>
        <mxCell id="eMwaslhEiThWYDU8rAF3-40" value="" style="endArrow=classic;html=1;rounded=0;" parent="1" target="eMwaslhEiThWYDU8rAF3-39" edge="1">
          <mxGeometry width="50" height="50" relative="1" as="geometry">
            <mxPoint x="1410" y="1350" as="sourcePoint" />
            <mxPoint x="1340" y="1350" as="targetPoint" />
          </mxGeometry>
        </mxCell>
        <mxCell id="eMwaslhEiThWYDU8rAF3-43" value="" style="endArrow=classic;html=1;rounded=0;" parent="1" source="eMwaslhEiThWYDU8rAF3-25" edge="1">
          <mxGeometry width="50" height="50" relative="1" as="geometry">
            <mxPoint x="1410" y="1380" as="sourcePoint" />
            <mxPoint x="1005" y="1380" as="targetPoint" />
          </mxGeometry>
        </mxCell>
        <mxCell id="eMwaslhEiThWYDU8rAF3-48" value="" style="endArrow=classic;html=1;rounded=0;" parent="1" source="eMwaslhEiThWYDU8rAF3-25" edge="1">
          <mxGeometry width="50" height="50" relative="1" as="geometry">
            <mxPoint x="1410" y="1420" as="sourcePoint" />
            <mxPoint x="725" y="1420" as="targetPoint" />
          </mxGeometry>
        </mxCell>
        <mxCell id="eMwaslhEiThWYDU8rAF3-50" value="" style="endArrow=classic;html=1;rounded=0;" parent="1" edge="1">
          <mxGeometry width="50" height="50" relative="1" as="geometry">
            <mxPoint x="1410" y="1470" as="sourcePoint" />
            <mxPoint x="725" y="1470" as="targetPoint" />
          </mxGeometry>
        </mxCell>
        <mxCell id="eMwaslhEiThWYDU8rAF3-51" value="" style="endArrow=none;html=1;rounded=0;startArrow=classic;startFill=1;endFill=0;" parent="1" target="eMwaslhEiThWYDU8rAF3-19" edge="1">
          <mxGeometry width="50" height="50" relative="1" as="geometry">
            <mxPoint x="425" y="1540" as="sourcePoint" />
            <mxPoint x="290" y="1540" as="targetPoint" />
          </mxGeometry>
        </mxCell>
        <mxCell id="eMwaslhEiThWYDU8rAF3-52" value="logout()" style="text;html=1;align=center;verticalAlign=middle;resizable=0;points=[];autosize=1;strokeColor=none;fillColor=none;" parent="1" vertex="1">
          <mxGeometry x="320" y="1515" width="60" height="30" as="geometry" />
        </mxCell>
        <mxCell id="PuHrWQFaVGDyzbBfcS2c-11" value="" style="endArrow=none;html=1;rounded=0;entryX=1;entryY=0.966;entryDx=0;entryDy=0;entryPerimeter=0;startArrow=classic;startFill=1;endFill=0;" parent="1" edge="1">
          <mxGeometry width="50" height="50" relative="1" as="geometry">
            <mxPoint x="429.5" y="710.1399999999999" as="sourcePoint" />
            <mxPoint x="280" y="710.1399999999999" as="targetPoint" />
          </mxGeometry>
        </mxCell>
        <mxCell id="PuHrWQFaVGDyzbBfcS2c-13" value="like()" style="text;html=1;align=center;verticalAlign=middle;resizable=0;points=[];autosize=1;strokeColor=none;fillColor=none;" parent="1" vertex="1">
          <mxGeometry x="722" y="954" width="50" height="30" as="geometry" />
        </mxCell>
        <mxCell id="PuHrWQFaVGDyzbBfcS2c-14" value="removeLike()" style="text;html=1;align=center;verticalAlign=middle;resizable=0;points=[];autosize=1;strokeColor=none;fillColor=none;" parent="1" vertex="1">
          <mxGeometry x="721" y="985" width="90" height="30" as="geometry" />
        </mxCell>
        <mxCell id="PuHrWQFaVGDyzbBfcS2c-15" value="leaveComment(User,String)" style="text;html=1;align=center;verticalAlign=middle;resizable=0;points=[];autosize=1;strokeColor=none;fillColor=none;" parent="1" vertex="1">
          <mxGeometry x="720" y="1015" width="170" height="30" as="geometry" />
        </mxCell>
        <mxCell id="PuHrWQFaVGDyzbBfcS2c-16" value="removeComment(Integer)" style="text;html=1;align=center;verticalAlign=middle;resizable=0;points=[];autosize=1;strokeColor=none;fillColor=none;" parent="1" vertex="1">
          <mxGeometry x="718" y="1045" width="160" height="30" as="geometry" />
        </mxCell>
        <mxCell id="PuHrWQFaVGDyzbBfcS2c-17" value="updatePassword(String)" style="text;html=1;align=center;verticalAlign=middle;resizable=0;points=[];autosize=1;strokeColor=none;fillColor=none;" parent="1" vertex="1">
          <mxGeometry x="1136" y="985" width="150" height="30" as="geometry" />
        </mxCell>
        <mxCell id="PuHrWQFaVGDyzbBfcS2c-18" value="updateEmail(String)" style="text;html=1;align=center;verticalAlign=middle;resizable=0;points=[];autosize=1;strokeColor=none;fillColor=none;" parent="1" vertex="1">
          <mxGeometry x="1135" y="935" width="130" height="30" as="geometry" />
        </mxCell>
        <mxCell id="MwdxvVpv5yylb7fCFdbB-8" value="" style="endArrow=classicThin;dashed=1;html=1;rounded=0;entryX=0.5;entryY=0.348;entryDx=0;entryDy=0;entryPerimeter=0;endFill=1;" edge="1" parent="1" source="8l9VhPuDRp_csp2zXiqJ-29" target="eMwaslhEiThWYDU8rAF3-25">
          <mxGeometry width="50" height="50" relative="1" as="geometry">
            <mxPoint x="1320" y="1270" as="sourcePoint" />
            <mxPoint x="1350" y="1370" as="targetPoint" />
          </mxGeometry>
        </mxCell>
        <mxCell id="MwdxvVpv5yylb7fCFdbB-9" value="User" style="text;html=1;strokeColor=none;fillColor=none;align=center;verticalAlign=middle;whiteSpace=wrap;rounded=0;" vertex="1" parent="1">
          <mxGeometry x="1310" y="1350" width="60" height="30" as="geometry" />
        </mxCell>
        <mxCell id="MwdxvVpv5yylb7fCFdbB-10" value="" style="endArrow=classic;html=1;rounded=0;" edge="1" parent="1" target="eMwaslhEiThWYDU8rAF3-19">
          <mxGeometry width="50" height="50" relative="1" as="geometry">
            <mxPoint x="20" y="1260" as="sourcePoint" />
            <mxPoint x="200" y="1260" as="targetPoint" />
          </mxGeometry>
        </mxCell>
        <mxCell id="MwdxvVpv5yylb7fCFdbB-11" value="arrival" style="text;html=1;strokeColor=none;fillColor=none;align=center;verticalAlign=middle;whiteSpace=wrap;rounded=0;" vertex="1" parent="1">
          <mxGeometry x="110" y="1240" width="60" height="30" as="geometry" />
        </mxCell>
        <mxCell id="MwdxvVpv5yylb7fCFdbB-12" value=":Category" style="shape=umlLifeline;perimeter=lifelinePerimeter;whiteSpace=wrap;html=1;container=0;dropTarget=0;collapsible=0;recursiveResize=0;outlineConnect=0;portConstraint=eastwest;newEdgeStyle={&quot;edgeStyle&quot;:&quot;elbowEdgeStyle&quot;,&quot;elbow&quot;:&quot;vertical&quot;,&quot;curved&quot;:0,&quot;rounded&quot;:0};" vertex="1" parent="1">
          <mxGeometry x="1520" y="50" width="100" height="1630" as="geometry" />
        </mxCell>
        <mxCell id="MwdxvVpv5yylb7fCFdbB-13" value="" style="html=1;points=[];perimeter=orthogonalPerimeter;outlineConnect=0;targetShapes=umlLifeline;portConstraint=eastwest;newEdgeStyle={&quot;edgeStyle&quot;:&quot;elbowEdgeStyle&quot;,&quot;elbow&quot;:&quot;vertical&quot;,&quot;curved&quot;:0,&quot;rounded&quot;:0};" vertex="1" parent="MwdxvVpv5yylb7fCFdbB-12">
          <mxGeometry x="45" y="1440" width="10" height="20" as="geometry" />
        </mxCell>
        <mxCell id="MwdxvVpv5yylb7fCFdbB-15" value="" style="endArrow=classic;html=1;rounded=0;" edge="1" parent="1" source="CyQtG5ASKl8revoDWZop-8" target="MwdxvVpv5yylb7fCFdbB-13">
          <mxGeometry width="50" height="50" relative="1" as="geometry">
            <mxPoint x="1480" y="1490" as="sourcePoint" />
            <mxPoint x="1550" y="1490" as="targetPoint" />
          </mxGeometry>
        </mxCell>
        <mxCell id="MwdxvVpv5yylb7fCFdbB-16" value="addCategory(String)" style="text;html=1;strokeColor=none;fillColor=none;align=center;verticalAlign=middle;whiteSpace=wrap;rounded=0;" vertex="1" parent="1">
          <mxGeometry x="1470" y="1470" width="60" height="30" as="geometry" />
        </mxCell>
      </root>
    </mxGraphModel>
  </diagram>
</mxfile>
